<svg width="40" height="40" viewBox="0 0 40 40" fill="none" xmlns="http://www.w3.org/2000/svg">
<path fill-rule="evenodd" clip-rule="evenodd" d="M0 1C0 0.447715 0.447715 0 1 0H39C39.5523 0 40 0.447715 40 1V8C40 8.55228 39.5523 9 39 9C38.4477 9 38 8.55228 38 8V2H2V8C2 8.55228 1.55228 9 1 9C0.447715 9 0 8.55228 0 8V1Z" fill="#12A3F8"/>
<path fill-rule="evenodd" clip-rule="evenodd" d="M12 39C12 38.4477 12.4477 38 13 38H27C27.5523 38 28 38.4477 28 39C28 39.5523 27.5523 40 27 40H13C12.4477 40 12 39.5523 12 39Z" fill="#12A3F8"/>
<path fill-rule="evenodd" clip-rule="evenodd" d="M20 0C20.5523 0 21 0.447715 21 1V39C21 39.5523 20.5523 40 20 40C19.4477 40 19 39.5523 19 39V1C19 0.447715 19.4477 0 20 0Z" fill="#12A3F8"/>
</svg>
