<svg width="20" height="19" viewBox="0 0 20 19" fill="none" xmlns="http://www.w3.org/2000/svg">
<path fill-rule="evenodd" clip-rule="evenodd" d="M10.3752 0.0936421C8.40971 -0.19653 6.41011 0.192271 4.67971 1.19602C2.95026 2.19922 1.58748 3.75943 0.787666 5.63361C-0.0119419 7.5073 -0.208714 9.59973 0.224659 11.598C0.658089 13.5966 1.70045 15.4015 3.20407 16.7365C4.7085 18.0723 6.59294 18.8644 8.57484 18.9841C10.5569 19.1038 12.518 18.5437 14.1617 17.3956C15.8046 16.2482 17.0391 14.5779 17.6888 12.6428C17.8646 12.1193 17.5827 11.5523 17.0591 11.3765C16.5356 11.2007 15.9686 11.4827 15.7928 12.0062C15.2754 13.5474 14.2977 14.8612 13.0165 15.756C11.7363 16.6502 10.22 17.0799 8.69541 16.9878C7.1706 16.8957 5.70891 16.286 4.53196 15.241C3.3542 14.1952 2.52519 12.7694 2.17922 11.1741C1.8332 9.57862 1.99123 7.90878 2.62716 6.41863C3.26289 4.92897 4.33862 3.706 5.68323 2.92604C7.02689 2.14662 8.57038 1.84887 10.0831 2.0722C11.5963 2.29559 13.0073 3.02998 14.1004 4.17503C14.1073 4.18233 14.1144 4.18952 14.1216 4.1966L16.5615 6.60235H13.5996C13.0473 6.60235 12.5996 7.05007 12.5996 7.60235C12.5996 8.15464 13.0473 8.60235 13.5996 8.60235H19C19.5523 8.60235 20 8.15464 20 7.60235V1.93569C20 1.38341 19.5523 0.93569 19 0.93569C18.4477 0.93569 18 1.38341 18 1.93569V5.212L15.5363 2.78278C14.145 1.33021 12.3352 0.383005 10.3752 0.0936421Z" fill="#7B828E"/>
</svg>
