<svg width="20" height="19" viewBox="0 0 20 19" fill="none" xmlns="http://www.w3.org/2000/svg">
<path fill-rule="evenodd" clip-rule="evenodd" d="M9.62478 0.0936421C11.5903 -0.19653 13.5899 0.192271 15.3203 1.19602C17.0497 2.19922 18.4125 3.75943 19.2123 5.63361C20.0119 7.5073 20.2087 9.59973 19.7753 11.598C19.3419 13.5966 18.2995 15.4015 16.7959 16.7365C15.2915 18.0723 13.4071 18.8644 11.4252 18.9841C9.44308 19.1038 7.48203 18.5437 5.83826 17.3956C4.19543 16.2482 2.96089 14.5779 2.31117 12.6428C2.13538 12.1193 2.4173 11.5523 2.94086 11.3765C3.46442 11.2007 4.03136 11.4827 4.20715 12.0062C4.72462 13.5474 5.70234 14.8612 6.98348 15.756C8.2637 16.6502 9.77997 17.0799 11.3046 16.9878C12.8294 16.8957 14.2911 16.286 15.468 15.241C16.6458 14.1952 17.4748 12.7694 17.8208 11.1741C18.1668 9.57862 18.0088 7.90878 17.3728 6.41863C16.7371 4.92897 15.6614 3.706 14.3168 2.92604C12.9731 2.14662 11.4296 1.84887 9.91688 2.0722C8.40371 2.29559 6.99272 3.02998 5.89962 4.17503C5.89266 4.18233 5.88558 4.18952 5.8784 4.1966L3.43849 6.60235H6.40038C6.95267 6.60235 7.40038 7.05007 7.40038 7.60235C7.40038 8.15464 6.95267 8.60235 6.40038 8.60235H1C0.447715 8.60235 0 8.15464 0 7.60235V1.93569C0 1.38341 0.447715 0.93569 1 0.93569C1.55228 0.93569 2 1.38341 2 1.93569V5.212L4.46372 2.78278C5.85502 1.33021 7.66475 0.383005 9.62478 0.0936421Z" fill="#7B828E"/>
</svg>
